# xmcd
#
# Track frame offsets: 
#        183
#        20958
#        37908
#        50433
#        63333
#        78633
#        94833
#        113868
#        129008
#        141258
#        157593
#        178403
#        190270
#        204558
#        223120
#        240183
#
# Disc length: 3400 seconds
#
# Revision: 0
# Processed by: cddbd v1.5.2PL0 Copyright (c) Steve Scherf et al.
# Submitted via: ExactAudioCopy v0.99pb4
#
DISCID=db0d4610
DTITLE=Gil Ventura - Summer Sax 2
DYEAR=1997
DGENRE=Instrumental Pop
TTITLE0=El Condor Pasa
TTITLE1=Parole D'amore Sulla Sabbia
TTITLE2=Perfidia
TTITLE3=Mare Incantato
TTITLE4=La Vie En Rose
TTITLE5=Petite Fleur
TTITLE6=Pensami
TTITLE7=Se Mi Lasci Non Vale
TTITLE8=Il Padrino
TTITLE9=Imagine
TTITLE10=Il Gabbiano Infelice
TTITLE11=Maria Elena
TTITLE12=L'ultima Neve Di Primavera
TTITLE13=Ancora - Ancora - Ancora
TTITLE14=Feelings
TTITLE15=Ramaya
EXTD=
EXTT0=
EXTT1=
EXTT2=
EXTT3=
EXTT4=
EXTT5=
EXTT6=
EXTT7=
EXTT8=
EXTT9=
EXTT10=
EXTT11=
EXTT12=
EXTT13=
EXTT14=
EXTT15=
PLAYORDER=
